<svg xmlns="http://www.w3.org/2000/svg" viewBox="0 0 100 100" width="100" height="100">
  <!-- Fingertips and nails -->
  <rect width="100" height="100" fill="#f8f9fa" rx="10" ry="10"/>
  <g transform="translate(20, 15)">
    <!-- Left palm -->
    <path d="M10,40 C5,35 5,25 10,20 C15,15 25,15 30,20 C35,25 35,35 30,40 L20,50 L10,40 Z" fill="#007bff" fill-opacity="0.7"/>
    <!-- Right hand fingertips -->
    <path d="M40,20 L50,20 M40,25 L50,25 M40,30 L50,30 M40,35 L50,35" stroke="#007bff" stroke-width="4" stroke-linecap="round"/>
    <!-- Circular motion -->
    <path d="M35,30 C40,35 50,35 55,30 C60,25 60,15 55,10 C50,5 40,5 35,10 C30,15 30,25 35,30 Z" stroke="#000" stroke-width="1" fill="none" stroke-dasharray="2,1"/>
    <path d="M50,5 L55,10 L50,15" stroke="#000" stroke-width="1" fill="none"/>
  </g>
  <text x="50" y="85" font-family="Arial" font-size="10" text-anchor="middle" fill="#333">Uñas y yemas</text>
</svg>
